<svg width="645" height="66" viewBox="0 0 645 66" fill="none" xmlns="http://www.w3.org/2000/svg">
<path d="M17 29C17 29 140.116 2 321.5 2C502.884 2 626 29 626 29" stroke="#9797A5" stroke-width="3" stroke-linecap="round"/>
<path d="M22.1459 27.3023L157.79 8.44961L244.528 2H321.116L419.85 3.9845L525.966 12.9147L619.614 27.3023L645 66H0L22.1459 27.3023Z" fill="url(#paint0_radial)"/>
<path opacity="0.5" d="M307.619 31.195C310.388 31.195 311.961 29.05 311.935 26.32C311.896 23.408 310.349 21.445 307.619 21.445C305.487 21.445 303.966 22.615 303.498 24.669L304.668 24.838C305.006 23.434 306.072 22.576 307.567 22.55C309.452 22.524 310.518 23.863 310.687 25.761H307.281V26.866H310.674C310.622 27.62 310.453 28.335 309.959 28.985C309.413 29.739 308.529 30.077 307.567 30.09C306.163 30.103 305.097 29.258 304.707 27.919L303.563 28.218C304.083 30.142 305.578 31.195 307.619 31.195ZM313.235 31H314.405V27.62L317.603 31H319.215L315.757 27.49L318.851 23.98H317.356L314.405 27.36V23.98H313.235V31ZM323.099 23.785C322.137 23.785 321.396 24.149 320.889 24.76V23.98H319.862V34.12H321.019V30.35C321.526 30.883 322.215 31.195 323.086 31.195C325.049 31.195 326.232 29.583 326.232 27.477C326.232 25.371 325.049 23.785 323.099 23.785ZM322.943 30.129C321.526 30.129 320.889 29.024 320.889 27.477C320.889 25.93 321.539 24.838 322.917 24.838C324.347 24.838 325.01 25.995 325.01 27.477C325.01 28.972 324.334 30.129 322.943 30.129ZM333.052 25.15C332.649 24.24 331.7 23.785 330.426 23.785C328.84 23.785 327.865 24.526 327.527 25.761L328.632 26.086C328.879 25.228 329.568 24.864 330.413 24.864C331.635 24.864 332.116 25.397 332.142 26.515C331.102 26.658 329.88 26.801 328.996 27.035C327.93 27.347 327.267 27.997 327.267 29.102C327.267 30.233 328.086 31.195 329.659 31.195C330.829 31.195 331.7 30.753 332.259 29.895V31H333.286V26.658C333.286 26.099 333.247 25.592 333.052 25.15ZM329.828 30.22C328.827 30.22 328.424 29.674 328.424 29.089C328.424 28.439 328.931 28.114 329.516 27.932C330.192 27.737 331.141 27.633 332.129 27.49C332.129 27.815 332.116 28.27 332.012 28.608C331.843 29.479 331.076 30.22 329.828 30.22ZM334.982 31H336.139V28.036H339.831V31H340.988V23.98H339.831V26.931H336.139V23.98H334.982V31Z" fill="#161620"/>
<defs>
<radialGradient id="paint0_radial" cx="0" cy="0" r="1" gradientUnits="userSpaceOnUse" gradientTransform="translate(322.961 1.50387) rotate(89.9999) scale(54.5736 575.352)">
<stop stop-color="#AAD1FF" stop-opacity="0.27"/>
<stop offset="1" stop-color="#82BBFF" stop-opacity="0"/>
</radialGradient>
</defs>
</svg>
